<svg version="1.1" viewBox="0.0 0.0 800.0 600.0" fill="none" stroke="none" stroke-linecap="square" stroke-miterlimit="10" xmlns:xlink="http://www.w3.org/1999/xlink" xmlns="http://www.w3.org/2000/svg"><clipPath id="p.0"><path d="m0 0l800.0 0l0 600.0l-800.0 0l0 -600.0z" clip-rule="nonzero"/></clipPath><g clip-path="url(#p.0)"><path fill="#000000" fill-opacity="0.0" d="m0 0l800.0 0l0 600.0l-800.0 0z" fill-rule="evenodd"/><path fill="#f4cccc" d="m156.43307 67.66863c74.61417 -47.171913 149.22833 47.17192 223.84253 0c74.61417 -47.171913 149.22836 47.17192 223.8425 0l0 198.12204c-74.614136 47.171906 -149.22833 -47.17192 -223.8425 0c-74.6142 47.171906 -149.22836 -47.17192 -223.84253 0z" fill-rule="evenodd"/><path stroke="#f4cccc" stroke-width="1.0" stroke-linejoin="round" stroke-linecap="butt" d="m156.43307 67.66863c74.61417 -47.171913 149.22833 47.17192 223.84253 0c74.61417 -47.171913 149.22836 47.17192 223.8425 0l0 198.12204c-74.614136 47.171906 -149.22833 -47.17192 -223.8425 0c-74.6142 47.171906 -149.22836 -47.17192 -223.84253 0z" fill-rule="evenodd"/><path fill="#666666" d="m166.25984 75.37467c74.61417 -47.171917 149.22835 47.171913 223.84251 0c74.61417 -47.171917 149.22833 47.171913 223.84253 0l0 198.12204c-74.6142 47.171936 -149.22836 -47.171906 -223.84253 0c-74.61417 47.171936 -149.22835 -47.171906 -223.84251 0z" fill-rule="evenodd"/><path stroke="#f4cccc" stroke-width="1.0" stroke-linejoin="round" stroke-linecap="butt" d="m166.25984 75.37467c74.61417 -47.171917 149.22835 47.171913 223.84251 0c74.61417 -47.171917 149.22833 47.171913 223.84253 0l0 198.12204c-74.6142 47.171936 -149.22836 -47.171906 -223.84253 0c-74.61417 47.171936 -149.22835 -47.171906 -223.84251 0z" fill-rule="evenodd"/></g></svg>