<svg version="1.1" viewBox="0.0 0.0 800.0 600.0" fill="none" stroke="none" stroke-linecap="square" stroke-miterlimit="10" xmlns:xlink="http://www.w3.org/1999/xlink" xmlns="http://www.w3.org/2000/svg"><clipPath id="p.0"><path d="m0 0l800.0 0l0 600.0l-800.0 0l0 -600.0z" clip-rule="nonzero"/></clipPath><g clip-path="url(#p.0)"><path fill="#000000" fill-opacity="0.0" d="m0 0l800.0 0l0 600.0l-800.0 0z" fill-rule="evenodd"/><path fill="#f4cccc" d="m178.04593 91.51848l130.22845 0l0 84.07869c-65.11073 0 -65.11073 32.349228 -130.22845 16.174622zm10.729233 0l0 -10.900284l129.339 0l0 84.606125c-4.916382 0 -9.839783 0.58602905 -9.839783 0.58602905l0 -74.29187zm10.084915 -10.900284l0 -10.636566l130.45956 0l0 84.34241c-5.6027527 0 -11.205475 0.43952942 -11.205475 0.43952942l0 -74.14537z" fill-rule="evenodd"/><path fill="#000000" fill-opacity="0.0" d="m178.04593 91.51848l130.22845 0l0 84.07869c-65.11073 0 -65.11073 32.349228 -130.22845 16.174622zm10.729233 0l0 -10.900284l129.339 0l0 84.606125c-4.916382 0 -9.839783 0.58602905 -9.839783 0.58602905m-109.41431 -85.192154l0 -10.636566l130.45956 0l0 84.34241c-5.6027527 0 -11.205475 0.43952942 -11.205475 0.43952942" fill-rule="evenodd"/><path fill="#000000" fill-opacity="0.0" d="m178.04593 191.77179c65.11772 16.174606 65.11772 -16.174622 130.22845 -16.174622l0 -9.786819c0 0 4.923401 -0.58602905 9.839783 -0.58602905l0 -10.460754c0 0 5.602722 -0.43952942 11.205475 -0.43952942l0 -84.34241l-130.45956 0l0 10.636566l-10.084915 0l0 10.900284l-10.729233 0z" fill-rule="evenodd"/><path stroke="#999999" stroke-width="1.0" stroke-linejoin="round" stroke-linecap="butt" d="m178.04593 91.51848l130.22845 0l0 84.07869c-65.11073 0 -65.11073 32.349228 -130.22845 16.174622zm10.729233 0l0 -10.900284l129.339 0l0 84.606125c-4.916382 0 -9.839783 0.58602905 -9.839783 0.58602905m-109.41431 -85.192154l0 -10.636566l130.45956 0l0 84.34241c-5.6027527 0 -11.205475 0.43952942 -11.205475 0.43952942" fill-rule="evenodd"/><path fill="#f4cccc" d="m465.04907 212.38583l-5.6555176 -23.992706l0 0c-33.9357 -16.023148 -47.770935 -50.9971 -31.96286 -80.79844c15.808105 -29.801346 56.08606 -44.67706 93.05203 -34.36657c36.966003 10.310493 58.522156 42.432884 49.80011 74.21066c-8.721985 31.777786 -44.867798 52.81108 -83.50574 48.592117z" fill-rule="evenodd"/><path stroke="#999999" stroke-width="1.0" stroke-linejoin="round" stroke-linecap="butt" d="m465.04907 212.38583l-5.6555176 -23.992706l0 0c-33.9357 -16.023148 -47.770935 -50.9971 -31.96286 -80.79844c15.808105 -29.801346 56.08606 -44.67706 93.05203 -34.36657c36.966003 10.310493 58.522156 42.432884 49.80011 74.21066c-8.721985 31.777786 -44.867798 52.81108 -83.50574 48.592117z" fill-rule="evenodd"/><path fill="#f4cccc" d="m434.5451 290.01477c-1.2163391 -10.182037 2.7769775 -20.261688 10.2854 -25.961761c7.508423 -5.7000732 17.215149 -6.020935 25.001312 -0.826416l0 0c2.7579346 -5.920685 7.8059387 -10.00853 13.617035 -11.026978c5.811096 -1.0184631 11.702698 1.1521149 15.892609 5.8551025l0 0c2.3494873 -5.367981 6.9628296 -8.974579 12.202911 -9.539978c5.2401123 -0.56539917 10.365356 1.9904327 13.557007 6.760544l0 0c4.244812 -5.6897125 10.998291 -8.085297 17.338257 -6.150177c6.339966 1.9351349 11.127747 7.853409 12.291565 15.193954l0 0c5.2003174 1.6159363 9.5321045 5.723816 11.876099 11.262268c2.3440552 5.538452 2.470398 11.964203 0.3463745 17.617065c5.121216 7.5923767 6.319275 17.709229 3.1470337 26.575104c-3.1721802 8.865845 -10.238098 15.148651 -18.56073 16.503784c-0.058654785 8.3211975 -4.064575 15.956604 -10.473755 19.963165c-6.4091797 4.0065613 -14.220703 3.7586365 -20.423645 -0.6482544c-2.6421509 9.966034 -10.079102 17.29895 -19.097748 18.830658c-9.018646 1.5316772 -18.002197 -3.0124817 -23.069397 -11.66922l0 0c-6.2113037 4.266876 -13.664368 5.4960327 -20.677917 3.4102173c-7.01355 -2.0858154 -12.996796 -7.310913 -16.600006 -14.496582l0 0c-6.347107 0.8461609 -12.483917 -2.899994 -15.364746 -9.379242c-2.8808289 -6.479248 -1.892456 -14.312347 2.47464 -19.611786l0 0c-5.6621094 -3.7962646 -8.55127 -11.329346 -7.1608887 -18.67102c1.3903809 -7.341675 6.7452087 -12.828308 13.272186 -13.598816z" fill-rule="evenodd"/><path fill="#f4cccc" d="m468.56525 390.43176c0 1.941925 -1.5742493 3.5161743 -3.5161743 3.5161743c-1.9419556 0 -3.5162048 -1.5742493 -3.5162048 -3.5161743c0 -1.941925 1.5742493 -3.5162048 3.5162048 -3.5162048c1.941925 0 3.5161743 1.5742798 3.5161743 3.5162048z" fill-rule="evenodd"/><path fill="#f4cccc" d="m473.74622 386.25256c0 3.8838806 -3.1484985 7.032379 -7.032379 7.032379c-3.88385 0 -7.032379 -3.1484985 -7.032379 -7.032379c0 -3.88385 3.148529 -7.0323486 7.032379 -7.0323486c3.8838806 0 7.032379 3.1484985 7.032379 7.0323486z" fill-rule="evenodd"/><path fill="#f4cccc" d="m481.52966 375.54028c0 5.825836 -4.722748 10.548584 -10.548553 10.548584c-5.825836 0 -10.548584 -4.722748 -10.548584 -10.548584c0 -5.8258057 4.722748 -10.548553 10.548584 -10.548553c5.8258057 0 10.548553 4.722748 10.548553 10.548553z" fill-rule="evenodd"/><path fill="#000000" fill-opacity="0.0" d="m437.3147 324.51382l0 0c-3.0870361 0.27526855 -6.173767 -0.5373535 -8.845703 -2.328827m16.650269 27.814148c-1.2413635 0.5628967 -2.5426025 0.9376526 -3.8701172 1.114624m37.21756 11.131195l0 0c-0.9336548 -1.5950623 -1.7153625 -3.2994995 -2.3318176 -5.08432m45.454163 -7.593994c-0.13726807 1.8918762 -0.44934082 3.7618713 -0.9310913 5.5787964m19.444702 -40.04831l0 0c6.9988403 3.8798218 11.415588 11.991211 11.353149 20.850159m15.426453 -43.056976c-1.1334839 3.0166016 -2.8638306 5.692566 -5.055359 7.8181458m-7.0756836 -36.82773l0 0c0.19311523 1.2181702 0.28253174 2.4546814 0.26690674 3.6923523m-32.552917 -7.9993286l0 0c0.6586914 -1.7034607 1.5310669 -3.2895203 2.5899658 -4.708847m-26.812958 6.95253l0 0c0.26870728 -1.4077454 0.6900635 -2.7719116 1.254303 -4.061096m-29.68277 5.4408264l0 0c1.647522 1.0991516 3.1717224 2.4221191 4.5391235 3.9397888m-39.01483 27.024445l0 0c-0.35964966 -1.3558044 -0.62454224 -2.7418823 -0.7922058 -4.1452637" fill-rule="evenodd"/><path stroke="#999999" stroke-width="1.0" stroke-linejoin="round" stroke-linecap="butt" d="m434.5451 290.01477c-1.2163391 -10.182037 2.7769775 -20.261688 10.2854 -25.961761c7.508423 -5.7000732 17.215149 -6.020935 25.001312 -0.826416l0 0c2.7579346 -5.920685 7.8059387 -10.00853 13.617035 -11.026978c5.811096 -1.0184631 11.702698 1.1521149 15.892609 5.8551025l0 0c2.3494873 -5.367981 6.9628296 -8.974579 12.202911 -9.539978c5.2401123 -0.56539917 10.365356 1.9904327 13.557007 6.760544l0 0c4.244812 -5.6897125 10.998291 -8.085297 17.338257 -6.150177c6.339966 1.9351349 11.127747 7.853409 12.291565 15.193954l0 0c5.2003174 1.6159363 9.5321045 5.723816 11.876099 11.262268c2.3440552 5.538452 2.470398 11.964203 0.3463745 17.617065c5.121216 7.5923767 6.319275 17.709229 3.1470337 26.575104c-3.1721802 8.865845 -10.238098 15.148651 -18.56073 16.503784c-0.058654785 8.3211975 -4.064575 15.956604 -10.473755 19.963165c-6.4091797 4.0065613 -14.220703 3.7586365 -20.423645 -0.6482544c-2.6421509 9.966034 -10.079102 17.29895 -19.097748 18.830658c-9.018646 1.5316772 -18.002197 -3.0124817 -23.069397 -11.66922l0 0c-6.2113037 4.266876 -13.664368 5.4960327 -20.677917 3.4102173c-7.01355 -2.0858154 -12.996796 -7.310913 -16.600006 -14.496582l0 0c-6.347107 0.8461609 -12.483917 -2.899994 -15.364746 -9.379242c-2.8808289 -6.479248 -1.892456 -14.312347 2.47464 -19.611786l0 0c-5.6621094 -3.7962646 -8.55127 -11.329346 -7.1608887 -18.67102c1.3903809 -7.341675 6.7452087 -12.828308 13.272186 -13.598816z" fill-rule="evenodd"/><path stroke="#999999" stroke-width="1.0" stroke-linejoin="round" stroke-linecap="butt" d="m468.56525 390.43176c0 1.941925 -1.5742493 3.5161743 -3.5161743 3.5161743c-1.9419556 0 -3.5162048 -1.5742493 -3.5162048 -3.5161743c0 -1.941925 1.5742493 -3.5162048 3.5162048 -3.5162048c1.941925 0 3.5161743 1.5742798 3.5161743 3.5162048z" fill-rule="evenodd"/><path stroke="#999999" stroke-width="1.0" stroke-linejoin="round" stroke-linecap="butt" d="m473.74622 386.25256c0 3.8838806 -3.1484985 7.032379 -7.032379 7.032379c-3.88385 0 -7.032379 -3.1484985 -7.032379 -7.032379c0 -3.88385 3.148529 -7.0323486 7.032379 -7.0323486c3.8838806 0 7.032379 3.1484985 7.032379 7.0323486z" fill-rule="evenodd"/><path stroke="#999999" stroke-width="1.0" stroke-linejoin="round" stroke-linecap="butt" d="m481.52966 375.54028c0 5.825836 -4.722748 10.548584 -10.548553 10.548584c-5.825836 0 -10.548584 -4.722748 -10.548584 -10.548584c0 -5.8258057 4.722748 -10.548553 10.548584 -10.548553c5.8258057 0 10.548553 4.722748 10.548553 10.548553z" fill-rule="evenodd"/><path stroke="#999999" stroke-width="1.0" stroke-linejoin="round" stroke-linecap="butt" d="m437.3147 324.51382l0 0c-3.0870361 0.27526855 -6.173767 -0.5373535 -8.845703 -2.328827m16.650269 27.814148c-1.2413635 0.5628967 -2.5426025 0.9376526 -3.8701172 1.114624m37.21756 11.131195l0 0c-0.9336548 -1.5950623 -1.7153625 -3.2994995 -2.3318176 -5.08432m45.454163 -7.593994c-0.13726807 1.8918762 -0.44934082 3.7618713 -0.9310913 5.5787964m19.444702 -40.04831l0 0c6.9988403 3.8798218 11.415588 11.991211 11.353149 20.850159m15.426453 -43.056976c-1.1334839 3.0166016 -2.8638306 5.692566 -5.055359 7.8181458m-7.0756836 -36.82773l0 0c0.19311523 1.2181702 0.28253174 2.4546814 0.26690674 3.6923523m-32.552917 -7.9993286l0 0c0.6586914 -1.7034607 1.5310669 -3.2895203 2.5899658 -4.708847m-26.812958 6.95253l0 0c0.26870728 -1.4077454 0.6900635 -2.7719116 1.254303 -4.061096m-29.68277 5.4408264l0 0c1.647522 1.0991516 3.1717224 2.4221191 4.5391235 3.9397888m-39.01483 27.024445l0 0c-0.35964966 -1.3558044 -0.62454224 -2.7418823 -0.7922058 -4.1452637" fill-rule="evenodd"/><path fill="#f4cccc" d="m185.95473 374.60892c4.3693542 0 7.9114075 -3.5420532 7.9114075 -7.9114075l-7.9114075 0c2.1846771 0 3.9557037 -1.7710266 3.9557037 -3.955719c0 -2.1846619 -1.7710266 -3.9556885 -3.9557037 -3.9556885l7.9114075 0l0 -102.848434l0 0c0 -4.3693542 3.5420685 -7.9114227 7.9114227 -7.9114227l119.62991 0c4.3693542 0 7.911438 3.5420685 7.911438 7.9114227c0 4.369339 -3.5420837 7.9114227 -7.911438 7.9114227l-7.9114075 0l0 102.84842c0 4.3693542 -3.5420532 7.9114075 -7.9114075 7.9114075zm23.734253 -118.67125l0 0c0 4.369339 -3.5420685 7.9114227 -7.9114227 7.9114227c-2.1846771 0 -3.9557037 -1.7710266 -3.9557037 -3.955719c0 -2.1846619 1.7710266 -3.9557037 3.9557037 -3.9557037z" fill-rule="evenodd"/><path fill="#c3a3a3" d="m209.68898 255.93767l0 0c0 4.369339 -3.5420685 7.9114227 -7.9114227 7.9114227c-2.1846771 0 -3.9557037 -1.7710266 -3.9557037 -3.955719c0 -2.1846619 1.7710266 -3.9557037 3.9557037 -3.9557037zm-15.822845 110.75984c0 4.3693542 -3.5420532 7.9114075 -7.9114075 7.9114075c-4.3693542 0 -7.9114227 -3.5420532 -7.9114227 -7.9114075c0 -4.3693542 3.5420685 -7.9114075 7.9114227 -7.9114075l0 0c2.1846771 0 3.9557037 1.7710266 3.9557037 3.9556885c0 2.1846924 -1.7710266 3.955719 -3.9557037 3.955719z" fill-rule="evenodd"/><path fill="#000000" fill-opacity="0.0" d="m193.86613 358.7861l0 -102.848434l0 0c0 -4.3693542 3.5420685 -7.9114227 7.9114227 -7.9114227l119.62991 0c4.3693542 0 7.911438 3.5420685 7.911438 7.9114227c0 4.369339 -3.5420837 7.9114227 -7.911438 7.9114227l-7.9114075 0l0 102.84842c0 4.3693542 -3.5420532 7.9114075 -7.9114075 7.9114075l-119.62993 0c-4.3693542 0 -7.9114227 -3.5420532 -7.9114227 -7.9114075c0 -4.3693542 3.5420685 -7.9114075 7.9114227 -7.9114075zm7.9114227 -110.75986l0 0c4.3693542 0 7.9114227 3.5420685 7.9114227 7.9114227c0 4.369339 -3.5420685 7.9114227 -7.9114227 7.9114227c-2.1846771 0 -3.9557037 -1.7710266 -3.9557037 -3.955719c0 -2.1846619 1.7710266 -3.9557037 3.9557037 -3.9557037l7.9114227 0m103.80708 7.9114227l-111.718506 0m-15.82283 94.93701l0 0c2.1846771 0 3.9557037 1.7710266 3.9557037 3.9556885c0 2.1846924 -1.7710266 3.955719 -3.9557037 3.955719l7.9114075 0m-7.9114075 7.9114075c4.3693542 0 7.9114075 -3.5420532 7.9114075 -7.9114075l0 -7.9114075" fill-rule="evenodd"/><path stroke="#999999" stroke-width="1.0" stroke-linejoin="round" stroke-linecap="butt" d="m193.86613 358.7861l0 -102.848434l0 0c0 -4.3693542 3.5420685 -7.9114227 7.9114227 -7.9114227l119.62991 0c4.3693542 0 7.911438 3.5420685 7.911438 7.9114227c0 4.369339 -3.5420837 7.9114227 -7.911438 7.9114227l-7.9114075 0l0 102.84842c0 4.3693542 -3.5420532 7.9114075 -7.9114075 7.9114075l-119.62993 0c-4.3693542 0 -7.9114227 -3.5420532 -7.9114227 -7.9114075c0 -4.3693542 3.5420685 -7.9114075 7.9114227 -7.9114075zm7.9114227 -110.75986l0 0c4.3693542 0 7.9114227 3.5420685 7.9114227 7.9114227c0 4.369339 -3.5420685 7.9114227 -7.9114227 7.9114227c-2.1846771 0 -3.9557037 -1.7710266 -3.9557037 -3.955719c0 -2.1846619 1.7710266 -3.9557037 3.9557037 -3.9557037l7.9114227 0m103.80708 7.9114227l-111.718506 0m-15.82283 94.93701l0 0c2.1846771 0 3.9557037 1.7710266 3.9557037 3.9556885c0 2.1846924 -1.7710266 3.955719 -3.9557037 3.955719l7.9114075 0m-7.9114075 7.9114075c4.3693542 0 7.9114075 -3.5420532 7.9114075 -7.9114075l0 -7.9114075" fill-rule="evenodd"/></g></svg>